<svg xmlns="http://www.w3.org/2000/svg" xmlns:xlink="http://www.w3.org/1999/xlink" width="1440" height="1024" style="background:#fff" viewBox="0 0 1440 1024">
  <defs>
    <polygon id="manic-a" points=".012 .518 7.285 .518 7.285 20.691 .012 20.691 .012 .518"/>
    <polygon id="manic-c" points="20.749 .459 20.749 8.744 .968 8.744 .968 .459 20.749 .459"/>
    <polygon id="manic-e" points="8.059 21 .691 21 .691 .858 8.059 .858 8.059 21"/>
  </defs>
  <g fill="none" fill-rule="evenodd">
    <rect width="70" height="77" x="-6" y="-27" fill="#000"/>
    <g fill="#000" style="mix-blend-mode:multiply" transform="rotate(-3 -979.092 3659.963)">
      <path d="M267.943979,441.426886 C234.263673,371.012099 227.21547,298.359969 245.421776,223.546314 C263.552264,149.040222 301.298126,86.2587222 363.229894,36.733908 C337.082737,35.8484123 315.041191,41.3731042 297.155323,57.0688368 C266.326054,84.1215162 244.597793,117.887655 229.655948,155.918192 C213.649791,196.656714 205.57018,239.176242 204.146806,282.815872 C202.408717,336.107262 211.469669,387.134128 238.900008,433.820779 C246.537587,446.818539 246.544739,446.817108 260.835695,443.260821 C262.901375,442.745831 264.958471,442.19794 267.943979,441.426886 M294.940868,901.219439 C307.359266,900.385442 319.950757,902.109226 334.238851,902.777282 C344.478557,846.969597 347.180821,789.1463 350.57546,730.998275 C344.904854,730.456105 340.18984,729.878173 335.45766,729.587776 C330.732632,729.29881 325.770137,730.167139 321.288298,729.037023 C247.179893,710.332894 188.080567,671.371085 151.935464,602.0764 C129.637853,559.330849 119.067696,512.92172 110.836448,465.90748 C109.820775,460.113849 107.460407,458.151167 102.197501,456.793598 C69.2210131,448.29055 42.9465399,430.074231 24.4784477,401.289184 C6.67984171,373.546991 0.168086819,342.596128 0.00643736754,310.097436 C-0.20814155,267.104404 5.36375768,225.428886 29.9158775,188.538479 C56.5780233,148.475164 91.9663784,121.914586 141.308085,116.983562 C144.028946,116.711762 146.891429,114.660388 149.080134,112.743483 C169.512338,94.8490316 189.253599,76.1191531 210.268027,58.942826 C250.773374,25.8375906 296.531613,7.05621314 349.987513,7.90594565 C372.963193,8.27072981 396.007539,4.42404508 419.016121,2.44705798 C427.752344,1.69603177 436.477123,0.819119256 445.207624,0.000858315671 L493.845512,0.000858315671 C496.154381,0.428585625 498.448945,1.11237711 500.776411,1.24541604 C532.339539,3.05217053 560.977241,13.2017533 586.055795,32.3722339 C607.964302,49.1179726 623.252335,69.5172751 617.564563,99.6784878 C621.138017,101.495256 624.521212,103.177555 627.871504,104.924227 C645.863231,114.308478 663.884999,123.874407 678.018597,138.737573 C725.483453,188.65006 758.883377,246.760892 777.947999,312.997112 C780.223966,320.900769 781.678811,329.040463 783.734477,338.041333 C778.959381,336.793914 775.491786,335.889822 770.997072,334.71536 C771.984135,343.112548 772.851034,350.484049 773.717933,357.85555 C774.58054,358.18028 775.443148,358.50644 776.307185,358.831169 C781.780378,351.98324 787.255002,345.136742 794.168735,336.489212 C791.281933,344.893553 789.038868,351.425335 786.219301,359.630833 C796.118542,355.832786 802.003726,348.817486 808.918889,342.344355 C806.265263,347.791799 803.613068,353.239242 799.863659,360.938334 C807.515543,356.932861 813.54378,353.77712 819.55199,350.631393 C815.831192,362.933918 805.665873,368.980752 793.9656,373.315246 C803.856257,385.776559 803.013678,388.410158 787.173462,395.627162 C790.466533,400.041765 793.688078,404.359093 797.431765,409.377379 C781.956333,404.582255 769.778264,392.425644 765.87865,375.923095 C763.109151,364.204225 761.379645,351.940325 761.401103,339.922475 C761.448311,312.660938 754.142614,287.908545 740.569782,264.4565 C719.844319,228.650431 694.511132,196.173197 669.59709,163.324025 C647.009082,133.540472 617.22982,115.179669 581.655496,105.793987 C572.073832,103.264817 561.855584,103.141792 550.36846,101.72271 C556.041926,108.540597 560.359254,113.729115 565.86821,120.34816 C560.409322,120.34816 556.863048,119.936168 553.44123,120.418255 C537.688276,122.639863 521.84663,124.519574 506.29395,127.761146 C499.343023,129.210269 491.838483,132.245845 488.86442,140.015033 C484.801725,150.630967 477.586152,158.627608 469.07023,165.743045 C464.318022,169.714186 459.475691,173.622383 455.098281,177.984057 C450.58068,182.484492 451.238722,184.694655 456.903605,187.554277 C460.093678,189.165049 463.159296,191.021872 466.280704,192.768544 C466.064694,193.67979 465.848685,194.591035 465.634106,195.500849 C462.020597,195.69254 458.379908,195.683957 454.803593,196.15603 C452.876674,196.410664 449.556423,197.371977 449.492049,198.217418 C449.337552,200.228738 450.1458,203.232843 451.644991,204.261391 C454.690581,206.349959 458.560154,207.188248 461.868961,208.956378 C463.584162,209.874776 465.871573,211.592838 465.996029,213.107765 C466.129068,214.701371 464.308008,216.915825 462.753026,218.061677 C461.13081,219.259027 458.794761,220.097315 456.792024,220.0544 C451.45187,219.941388 450.221618,222.585 450.866785,227.245654 C451.50623,231.869115 449.620797,235.207963 445.093181,236.647072 C439.182248,238.526783 436.611592,242.862708 434.997959,248.531883 C434.231197,251.226994 432.043922,255.361215 430.142753,255.568641 C422.353538,256.416943 423.517987,260.209268 425.543612,265.343426 C429.541932,275.478704 429.290159,275.824891 419.386627,279.926209 C411.691827,283.111991 408.852233,287.689675 410.524518,294.208582 C418.695683,294.870916 421.395086,299.404253 417.036273,306.339444 C414.841846,309.829927 411.349931,312.666661 408.011083,315.235886 C402.922702,319.149805 397.329345,322.405682 392.213783,326.28813 C389.963566,327.994748 388.362807,330.55682 386.269947,332.955813 C400.914243,339.347403 400.962881,339.755103 388.909268,350.597061 C390.547221,353.798578 392.212353,357.173189 393.986205,360.489149 C396.439558,365.076846 399.442232,369.73607 390.009343,371.024974 C404.71086,385.396039 408.1384,400.708391 401.709616,419.458296 C397.91443,430.529138 395.795821,443.293723 407.155629,452.839623 C407.423137,453.064216 407.317278,453.735133 407.550454,455.317295 C397.149099,454.370286 396.220687,464.283832 390.939185,469.674055 C386.142631,474.570746 380.735242,478.90667 375.345019,483.171069 C370.694379,486.851812 365.985087,486.838938 361.162784,482.79341 C357.164463,479.440257 352.990188,475.848206 348.258007,473.965633 C344.505737,472.472164 338.895214,471.819844 335.696558,473.618015 C330.317779,476.640717 325.69861,477.260135 320.196807,475.140095 C316.955235,473.891246 313.550583,473.064402 310.218887,472.047298 C309.509346,472.317667 308.799805,472.588037 308.090264,472.858406 C324.47408,482.471541 320.461454,495.669575 316.99672,509.178034 C314.178584,520.170196 317.401559,523.663541 328.671244,523.700735 C329.862872,523.705026 331.070236,523.755095 332.243267,523.593445 C338.350183,522.746574 342.198299,525.421658 342.551639,531.445603 C342.784814,535.413883 342.872077,540.651039 340.629012,543.261749 C334.489193,550.411518 327.280772,556.707264 320.093809,562.872831 C316.270013,566.153028 312.205888,566.227415 310.841166,560.111916 C309.160298,560.80143 308.020169,561.735563 307.010217,561.611107 C294.229897,560.037529 286.437821,551.63891 279.957538,541.526521 C274.903489,533.637169 278.927559,527.896468 283.985899,521.809579 C288.399072,516.498036 292.82369,510.731585 292.204272,502.460283 C288.291783,502.260009 284.982976,502.267162 281.719946,501.886642 C275.102332,501.115588 274.216837,498.882537 277.209497,492.995922 C278.883213,489.707143 279.735806,485.982053 280.790104,482.404307 C281.511089,479.952385 281.410952,477.118513 282.606872,474.972724 C285.992928,468.901571 285.027322,466.921723 277.877553,466.566952 C266.403303,465.997603 257.88595,471.86276 250.318467,479.50463 C244.201537,485.683073 244.610668,488.20366 252.389869,491.943055 C257.9117,494.598111 259.649789,497.969861 258.53827,504.435839 C255.481236,522.243029 257.526888,539.565269 266.424761,555.69016 C266.956916,556.654334 267.152899,557.804477 268.072727,560.58399 C257.867353,550.495919 251.246879,540.590957 249.441555,527.976577 C248.733444,523.032679 248.607558,517.901382 247.11838,513.204965 C245.816601,509.102216 242.972716,505.490137 240.171745,500.531934 C239.021602,503.069687 238.658249,503.488831 238.673985,503.89367 C238.815607,507.465694 238.835634,511.054884 239.240473,514.599728 C242.483476,543.021421 251.55015,568.949706 275.829039,586.111728 C290.325991,596.360017 306.463756,604.348075 322.139462,612.841109 C331.269079,617.787868 340.76062,617.174172 350.309382,612.813929 C363.458778,606.810011 373.180633,597.577395 379.307577,584.515261 C380.180198,582.655577 381.058541,580.797324 382.075645,578.637229 C383.364549,579.398269 384.212851,579.773067 384.913809,580.330972 C403.932653,595.44162 420.057544,613.065701 432.659048,633.959966 C440.524081,647.000642 448.540749,660.034165 457.578813,672.265164 C472.562144,692.541441 491.768388,707.623478 516.841219,713.281209 C533.72858,717.09213 550.959267,719.356653 567.995402,722.530991 C599.58428,728.417606 631.346252,733.586096 662.636149,740.788795 C679.896878,744.761366 696.209167,752.700786 713.198095,758.063829 C737.278141,765.664214 761.488365,767.389429 784.695791,755.001072 C805.87616,743.695625 811.695541,720.65271 798.819375,698.870089 C796.072765,700.578137 792.632349,701.744016 790.768374,704.137286 C788.74561,706.735121 788.190566,710.475947 786.997507,713.711797 C765.057528,706.572041 755.245549,682.881098 764.765701,660.195815 C771.966969,670.954802 778.324227,673.88595 787.30507,670.385452 C785.296612,666.474394 783.298167,662.584794 781.112323,658.327548 C798.574755,661.593439 806.920444,658.825371 813.118914,646.594373 C800.886485,646.594373 789.526677,646.647302 778.1683,646.581498 C763.259357,646.495666 749.203007,644.123854 738.727264,630.822822 C740.458201,628.306527 741.887296,625.13505 744.247665,622.98497 C756.7147,611.622301 768.427848,599.033671 782.332561,589.766723 C794.763833,581.481115 809.51971,576.481426 823.633281,571.022539 C828.973435,568.955429 836.025929,568.690781 839.233168,575.630263 C842.192927,582.033298 836.729748,585.649668 833.06474,589.484909 C830.611387,592.052703 827.675948,594.177035 824.859242,596.375753 C816.407694,602.976201 807.894633,609.497969 799.443084,616.095556 C798.074071,617.165589 796.889595,618.47309 795.295989,619.976573 C798.137014,620.902123 800.186958,621.514389 802.196847,622.233943 C820.370251,628.741407 824.081036,645.791847 810.299347,659.619313 C807.77876,662.148483 805.202382,664.680514 802.354205,666.813429 C798.446008,669.738855 798.363037,672.577018 800.114001,677.146119 C805.462738,691.102332 810.529662,705.211611 814.769741,719.53976 C822.740633,746.472276 794.108652,774.350369 774.594846,776.325925 C761.638571,777.637718 748.427662,777.775048 735.429902,776.921024 C724.656609,776.211483 714.030661,773.283196 702.646534,771.211794 C712.710286,797.366103 725.130113,821.457594 747.181674,839.264783 C757.708915,847.764969 769.922747,851.740401 783.422622,852.703145 C800.650448,853.931967 817.221663,851.043735 833.230681,845.227216 C867.154177,832.900372 901.787214,830.437006 937.401593,835.292212 C987.189624,842.081489 1025.88822,865.220249 1049.58488,910.360501 C1064.88579,939.508901 1070.41477,971.006225 1068.3262,1003.78959 C1067.23471,1020.9087 1065.82278,1038.01064 1064.26923,1055.09398 C1063.22781,1066.55679 1067.52225,1075.29444 1076.0582,1082.74176 C1084.47112,1090.08036 1092.30182,1098.08415 1100.38716,1105.79755 L1100.38716,1148.71333 C1095.64353,1144.08701 1090.89991,1139.45926 1086.00178,1134.68273 C1077.56025,1141.73523 1074.30151,1153.41118 1079.1839,1163.45061 C1081.24958,1162.93562 1083.39394,1162.40061 1086.60976,1161.59808"/>
      <path d="M659.17914 376.66139C670.999577 373.228127 670.111221 362.110078 675.308322 353.791569 674.890608 360.598012 674.474325 367.404455 674.012265 374.924731 687.061525 375.172212 690.072782 363.132904 698.047965 355.738515 695.93937 361.941276 693.830774 368.142607 691.747928 374.265258 696.206878 375.109269 696.206878 375.109269 713.599215 360.434932 711.077197 365.367386 708.55518 370.298409 704.878727 377.489664 712.348935 373.937668 718.179759 371.165308 724.499824 368.161203 720.347006 380.30637 710.48639 385.815326 699.643002 389.845118 699.786054 390.80071 699.690209 391.394378 699.941982 391.660456 710.184549 402.475233 705.313607 409.034196 692.417414 411.577671 665.915488 416.806244 640.672424 415.159709 619.700911 395.09801 618.088708 393.554473 615.589579 392.859237 613.410887 392.003782 606.578695 389.324407 601.075461 385.343253 598.029871 376.787276 608.425504 383.138812 618.473519 381.82988 628.676032 380.887164 634.29943 380.366452 636.286431 378.234968 635.579751 372.911981 635.149162 369.666117 634.880223 366.398795 635.751414 362.676566 637.704082 367.613312 639.65675 372.550058 641.659487 377.611259 652.045106 378.069027 653.339732 375.98189 656.070607 356.317878 657.034781 362.623637 657.997525 368.929396 659.17914 376.66139M856.620212 483.329714C858.847541 493.442103 855.646024 500.465986 848.819553 505.77753 840.955951 511.897321 832.963601 517.93271 824.53065 523.211352 817.867259 527.382766 813.893258 532.524077 814.209404 542.032784 812.34972 539.475003 811.37124 538.130309 810.108086 536.39365 809.454335 540.931279 808.860667 545.042611 808.236958 549.365661 800.776764 544.398874 798.894191 538.362054 802.702252 531.043482 805.643414 525.390043 809.13962 520.027001 813.497002 512.662652 801.261712 515.583786 790.87037 518.065749 782.922367 519.964057 779.886791 524.780639 778.605039 529.394086 775.759723 530.76596 770.568344 533.26795 759.915216 528.91629 759.415962 524.114014 758.898112 519.131491 761.111136 513.808504 762.613188 508.777343 762.736213 508.368213 766.973432 508.419712 768.62712 509.395331 772.202005 511.503926 774.695412 511.27075 777.092973 507.81603 787.806183 492.382083 804.227193 487.465365 821.424978 485.077817 832.793369 483.499947 844.432129 483.864731 856.620212 483.329714M577.485799 306.981035C593.451901 286.41293 614.689492 275.310617 640.328811 273.642623 666.247083 271.956033 691.793419 274.900056 715.959297 284.955224 723.502461 288.092368 730.722326 292.743008 736.998044 298.003053 744.240798 304.075636 745.044754 314.270996 740.425585 321.37928 736.541706 327.357449 731.235885 328.93961 725.297771 324.94272 716.618769 319.099021 708.268788 312.756068 699.895919 306.468906 684.542082 294.941727 669.098122 284.194184 648.45563 284.624772 623.786207 285.138331 600.950719 291.022085 580.391197 304.926799 579.408426 305.590563 578.454265 306.295813 577.485799 306.981035"/>
      <path d="M566.572315 355.028544C589.271904 351.864221 610.14471 343.883315 630.262199 332.986998 649.604343 322.511255 670.638799 318.628807 692.520126 323.373862 705.761076 326.244928 712.410161 334.530536 713.580332 347.968898 714.078155 353.701016 712.919429 355.72378 707.247393 358.63347 706.171637 357.181486 705.078715 355.665129 703.942877 354.183104 694.285395 341.588752 681.397786 336.275778 666.149808 340.118171 653.990336 343.183788 642.487475 348.76141 630.469625 352.505096 618.504705 356.231617 606.416759 360.460252 594.089915 361.820682 585.1291 362.807745 575.691919 359.484633 566.467887 358.084148 566.50365 357.065614 566.537982 356.047079 566.572315 355.028544M352.164345 549.026912C356.272816 556.568646 359.939255 561.885911 362.15657 567.752499 364.561284 574.115479 361.133744 578.27831 354.343036 577.424286 350.022847 576.880686 345.476635 575.252748 341.851682 572.865199 338.226729 570.479082 335.648921 567.243232 341.505495 563.004583 345.476635 560.130656 347.788366 554.962165 352.164345 549.026912"/>
    </g>
    <rect width="874" height="239" y="797" fill="#000"/>
    <rect width="240" height="264" y="561" fill="#000"/>
    <g transform="rotate(27 -522.84 1758.23)">
      <g>
        <path fill="#ED1C24" d="M0.00276386802,35.4892278 L0.00276386802,17.6521697 C0.00276386802,8.05677466 7.18453119,0.205725858 15.9628966,0.205725858 L15.9628966,0.205725858 C24.7412621,0.205725858 31.9230294,8.05677466 31.9230294,17.6521697 L31.9230294,35.4892278"/>
        <path stroke="#ED1C24" d="M0.00276386802,35.4892278 L0.00276386802,17.6521697 C0.00276386802,8.05677466 7.18453119,0.205725858 15.9628966,0.205725858 L15.9628966,0.205725858 C24.7412621,0.205725858 31.9230294,8.05677466 31.9230294,17.6521697 L31.9230294,35.4892278"/>
      </g>
      <g transform="translate(0 34.294)">
        <path fill="#FEFEFE" d="M31.9244915,0.437428355 L31.9244915,18.2744864 C31.9244915,27.8698815 24.7427241,35.7209303 15.9643587,35.7209303 L15.9643587,35.7209303 C7.18599328,35.7209303 0.0042259542,27.8698815 0.0042259542,18.2744864 L0.0042259542,0.437428355"/>
        <path stroke="#ED1C24" d="M31.9244915,0.437428355 L31.9244915,18.2744864 C31.9244915,27.8698815 24.7427241,35.7209303 15.9643587,35.7209303 L15.9643587,35.7209303 C7.18599328,35.7209303 0.0042259542,27.8698815 0.0042259542,18.2744864 L0.0042259542,0.437428355"/>
      </g>
    </g>
    <g transform="rotate(45 20.378 1131.503)">
      <g>
        <path fill="#ED1C24" d="M0.00200665609,25.7663081 L0.00200665609,12.8160366 C0.00200665609,5.84947466 5.21619815,0.149363516 11.5895707,0.149363516 L11.5895707,0.149363516 C17.9629432,0.149363516 23.1771347,5.84947466 23.1771347,12.8160366 L23.1771347,25.7663081"/>
        <path stroke="#ED1C24" d="M0.00200665609,25.7663081 L0.00200665609,12.8160366 C0.00200665609,5.84947466 5.21619815,0.149363516 11.5895707,0.149363516 L11.5895707,0.149363516 C17.9629432,0.149363516 23.1771347,5.84947466 23.1771347,12.8160366 L23.1771347,25.7663081"/>
      </g>
      <g transform="translate(0 24.899)">
        <path fill="#FEFEFE" d="M23.1781962,0.317586899 L23.1781962,13.2678584 C23.1781962,20.2344204 17.9640047,25.9345315 11.5906322,25.9345315 L11.5906322,25.9345315 C5.21725968,25.9345315 0.00306817716,20.2344204 0.00306817716,13.2678584 L0.00306817716,0.317586899"/>
        <path stroke="#ED1C24" d="M23.1781962,0.317586899 L23.1781962,13.2678584 C23.1781962,20.2344204 17.9640047,25.9345315 11.5906322,25.9345315 L11.5906322,25.9345315 C5.21725968,25.9345315 0.00306817716,20.2344204 0.00306817716,13.2678584 L0.00306817716,0.317586899"/>
      </g>
    </g>
    <path d="M657,62 C657,62 645.706399,26.2422437 826.853199,199.121122 C1008,372 873,416 1046,647 C1219,878 1534,845 1546,1055"/>
    <path fill="#000" d="M752.865707,129.542452 L757.935751,123.615002 L764.957499,129.621053 L784.691667,106.549594 C787.707708,103.023503 789.526751,99.9737773 790.148852,97.4003242 C790.770953,94.8268712 789.455765,92.149166 786.203251,89.3671284 C782.950737,86.5850909 777.167199,84.2699404 768.852466,82.4216075 L743.892254,111.602899 L750.914002,117.608951 L745.843959,123.5364 L724.049182,104.894242 L729.119225,98.966792 L736.140973,104.972843 L765.001219,71.2319742 L757.97947,65.2259231 L763.049513,59.2984732 L776.089903,70.452568 L773.491789,75.3361939 C782.492088,77.2445584 789.439119,80.2917232 794.333089,84.4777797 C799.22706,88.6638362 801.229901,93.4298505 800.341673,98.7759655 C809.619564,100.605947 816.720587,103.626922 821.644955,107.838978 C826.569322,112.051035 828.69337,116.552272 828.01716,121.342822 C827.340951,126.133373 824.662855,131.264331 819.982792,136.73585 L799.858621,160.263267 L807.336327,166.659322 L804.060299,170.489366 C800.61488,169.963617 797.417948,168.439749 794.469407,165.917715 C791.520866,163.395681 789.974068,161.204135 789.828968,159.343011 C789.683868,157.481888 790.573317,155.426656 792.497343,153.177253 L812.231511,130.105794 C815.247552,126.579704 817.066595,123.529978 817.688696,120.956525 C818.310797,118.383072 817.056404,115.757366 813.925478,113.07933 C810.794553,110.401294 805.323397,108.090159 797.511846,106.145855 C796.160591,108.464084 794.470975,110.808658 792.442947,113.17965 L772.70878,136.251109 L780.642443,143.037167 L775.5724,148.964617 L752.865707,129.542452 Z M817.185955,191.502581 C813.165223,187.720463 811.101157,183.609744 810.993695,179.170302 C810.886233,174.730859 812.655019,170.573674 816.300104,166.698621 C819.945189,162.823568 824.516021,161.000106 830.012737,161.228182 C835.509453,161.456258 841.22957,164.365731 847.17326,169.956689 L856.700599,178.918621 L860.893796,174.460875 C865.936621,169.099899 865.894089,164.007702 860.766199,159.184131 C856.45411,155.127945 851.998397,151.925132 847.398926,149.575593 L841.890215,155.431847 L835.771741,149.676478 L845.555868,139.275072 C849.219538,140.634513 853.144634,142.679219 857.331277,145.409251 C861.517919,148.139283 864.805756,150.627935 867.194886,152.875281 C871.856604,157.260346 874.251533,162.011783 874.379744,167.129734 C874.507954,172.247685 872.489184,177.020905 868.323372,181.449537 L845.055238,206.185655 L852.222594,212.927659 L848.769372,216.598743 C845.352621,215.910895 842.245777,214.251476 839.448746,211.620437 C836.651716,208.989398 835.196421,206.741827 835.082819,204.877657 C834.969217,203.013487 835.953854,200.974275 838.03676,198.759959 C829.555401,199.019321 822.605202,196.600219 817.185955,191.502581 Z M824.139082,185.687049 C829.150429,190.400994 836.441348,191.932463 846.012057,190.281501 L851.274108,184.687468 L841.659363,175.643317 C838.104803,172.299705 834.810308,170.518687 831.77578,170.300209 C828.741252,170.081732 826.223683,171.035933 824.222997,173.162842 C822.222311,175.289751 821.198294,177.429208 821.150914,179.581277 C821.103535,181.733346 822.099581,183.768583 824.139082,185.687049 Z M869.159702,231.04354 L876.372636,238.5912 L870.733579,243.980174 L850.089664,222.378249 L855.728721,216.989275 L862.112582,223.669389 L894.211829,192.993692 L887.827968,186.313578 L893.467024,180.924604 L905.322767,193.330529 L901.719654,198.765672 C904.697794,199.681958 907.070825,200.457199 908.838819,201.091417 C910.606813,201.725635 912.914955,202.86719 915.763314,204.516117 C918.611673,206.165044 921.058344,208.059459 923.103401,210.199419 C927.856776,215.173381 929.656766,220.009568 928.503424,224.708125 C927.350082,229.406682 924.170805,234.243119 918.965495,239.217581 L896.582778,260.607662 L903.381175,267.721549 L899.737477,271.203655 C896.362175,270.334946 893.334228,268.498078 890.653545,265.692994 C887.972863,262.887911 886.653702,260.552259 886.696024,258.685967 C886.738346,256.819676 887.829471,254.864031 889.969432,252.818974 L911.918376,231.84343 C915.272908,228.637666 917.388697,225.785791 918.265804,223.287722 C919.142912,220.789652 918.089143,217.979067 915.104466,214.855881 C912.119788,211.732695 905.769585,208.561527 896.053665,205.34228 L869.159702,231.04354 Z M941.660451,253.762423 L948.171948,249.468193 L958.87449,265.696846 L915.297551,294.435154 L921.045212,303.150542 L914.533716,307.444772 L898.017447,282.400554 L904.528944,278.106324 L909.682019,285.92012 L946.747462,261.476042 L941.660451,253.762423 Z M964.041791,250.645687 C964.493739,249.006 965.471029,247.690686 966.973689,246.699705 C968.47635,245.708724 970.136665,245.356451 971.954684,245.642876 C973.772704,245.929301 975.166172,246.807134 976.135132,248.276403 C977.104091,249.745671 977.362593,251.300125 976.910644,252.939811 C976.458696,254.579498 975.481406,255.894812 973.978746,256.885793 C972.476085,257.876774 970.81577,258.229047 968.997751,257.942622 C967.179731,257.656197 965.786263,256.778363 964.817304,255.309095 C963.848344,253.839827 963.589843,252.285373 964.041791,250.645687 Z M966.865784,300.612833 C974.243635,302.50172 979.646145,307.104661 983.073478,314.421795 C986.500811,321.738929 987.883051,328.556233 987.220241,334.873914 L974.28854,340.9311 L970.725489,333.324217 L978.006363,329.913869 C977.851245,326.187841 976.959284,322.586157 975.330452,319.108708 C972.989007,314.109874 969.289976,311.116295 964.233247,310.127881 C959.176519,309.139468 953.714138,310.019574 947.845942,312.768227 C941.977746,315.51688 937.804837,319.149926 935.327092,323.667475 C932.849346,328.185023 932.781197,332.943143 935.122642,337.941976 C936.446068,340.767404 937.994824,343.178045 939.768957,345.173972 C941.543089,347.169899 942.852225,348.456016 943.696404,349.03236 C944.540582,349.608705 945.932467,350.458531 947.872098,351.581866 L943.669919,358.453087 C936.406665,355.582937 930.883302,350.109031 927.099662,342.031205 C923.316023,333.95338 923.060126,326.475987 926.331964,319.598804 C929.603803,312.72162 935.332884,307.365839 943.51938,303.531298 C951.705876,299.696757 959.487933,298.723945 966.865784,300.612833 Z M1038.09064,444.244116 L956.464129,458.134845 L958.114911,467.835387 L953.146341,468.680909 C950.83583,466.07153 949.365201,462.913523 948.734412,459.206793 C948.103622,455.500063 948.203141,452.866063 949.032971,451.304713 C949.862801,449.743364 951.572279,448.701824 954.161456,448.180062 C948.243285,444.399302 944.666884,438.881142 943.432146,431.625416 C942.197409,424.369689 944.096688,418.244306 949.130042,413.249083 C954.163396,408.25386 961.155647,404.994653 970.107005,403.471362 C979.058363,401.948072 986.854621,403.055828 993.496012,406.794665 C1000.1374,410.533502 1004.20291,416.779923 1005.69264,425.534114 C1006.41738,429.79291 1006.35428,434.429158 1005.50335,439.442995 L1028.69001,435.497223 L1027.13989,426.388178 L1034.82934,425.079631 L1038.09064,444.244116 Z M957.044463,420.057838 C953.307429,423.371752 951.83821,427.37493 952.636763,432.067492 C953.435316,436.760054 955.939565,440.269636 960.149585,442.596344 C964.359604,444.923051 969.067141,445.643499 974.272336,444.757709 L995.32961,441.174303 C997.142025,436.5649 997.635527,431.835122 996.810132,426.984827 C995.984737,422.134531 993.338288,418.385413 988.870708,415.737358 C984.403127,413.089304 978.916172,412.318907 972.409678,413.426145 C965.903184,414.533382 960.781497,416.743925 957.044463,420.057838 Z M1001.59142,516.840068 L995.456851,518.518375 L984.278698,477.659857 C978.751227,479.586774 974.594581,482.507147 971.808634,486.421062 C969.022688,490.334977 968.305274,494.76114 969.65637,499.699682 C970.543027,502.940601 971.687186,505.758528 973.088883,508.153549 C974.49058,510.548569 975.618,512.16846 976.471177,513.01327 C977.324354,513.85808 978.572434,515.00953 980.215455,516.467655 L974.905298,522.523581 C968.130835,518.073491 963.540352,511.450155 961.133712,502.653377 C958.727072,493.856598 959.720937,486.348264 964.115336,480.128148 C968.509736,473.908033 975.066644,469.605275 983.786258,467.219746 C992.505872,464.834217 1000.33997,465.199855 1007.28878,468.316672 C1014.2376,471.433488 1018.81498,477.02367 1021.02107,485.087384 C1023.22716,493.151097 1022.46951,499.931293 1018.74812,505.428173 C1015.02673,510.925054 1009.30789,514.728981 1001.59142,516.840068 Z M1011.05483,499.135259 C1013.18887,496.021744 1013.65951,492.285138 1012.46675,487.925331 C1011.27398,483.565524 1008.88938,480.381977 1005.31288,478.374594 C1001.73637,476.367211 997.506579,475.53387 992.623364,475.874545 L1000.98323,506.431624 C1005.56361,504.680872 1008.92078,502.248775 1011.05483,499.135259 Z M1023.18463,510.072329 L1030.31028,506.89978 L1037.28989,522.576218 L1031.28605,527.088289 C1038.42736,529.163051 1043.52728,533.635312 1046.58596,540.505207 C1049.64464,547.375103 1049.35443,553.853138 1045.71534,559.939507 C1042.07624,566.025877 1036.10927,570.915584 1027.81424,574.608774 C1019.5192,578.301964 1011.69152,579.159974 1004.33096,577.182829 C996.970398,575.205684 991.484278,570.161026 987.872436,562.048703 C986.180402,558.248336 985.056529,553.757224 984.500783,548.575234 L966.960713,556.384584 L970.718963,564.825743 L963.593309,567.998291 L951.928093,541.797811 L959.053747,538.625263 L962.811996,547.066422 L1026.94288,518.513487 L1023.18463,510.072329 Z M1036.36096,555.303471 C1039.16062,551.167126 1039.59241,546.924769 1037.65633,542.576271 C1035.72025,538.227774 1032.42468,535.447911 1027.76952,534.2366 C1023.11435,533.025289 1018.37507,533.493417 1013.55152,535.640999 L993.928571,544.377709 C993.42008,549.332957 994.028111,553.747241 995.752685,557.620692 C997.997884,562.663488 1001.61258,565.914257 1006.59688,567.373099 C1011.58118,568.83194 1017.08796,568.219131 1023.11739,565.534654 C1029.14682,562.850176 1033.5613,559.439816 1036.36096,555.303471 Z M1024.91796,604.280993 L1030.3904,613.171778 L1023.74786,617.260379 L1008.08537,591.814339 L1014.72791,587.725738 L1019.57133,595.594594 L1057.38271,572.321021 L1052.53929,564.452165 L1059.18184,560.363564 L1068.17676,574.977153 L1063.51535,579.537251 C1066.23558,581.056878 1068.39365,582.311871 1069.98963,583.302266 C1071.58561,584.292661 1073.60352,585.892258 1076.04341,588.101104 C1078.48331,590.309951 1080.47902,592.674724 1082.0306,595.195496 L1084.02019,601.861823 L1074.19364,604.669313 L1072.58938,599.315812 C1069.06688,593.59298 1064.00891,588.580526 1057.41531,584.2783 L1024.91796,604.280993 Z M1096.42544,659.078337 L1091.26037,662.789347 L1066.54364,628.387997 C1062.03424,632.120457 1059.15595,636.306352 1057.90868,640.945807 C1056.6614,645.585263 1057.5315,649.983959 1060.519,654.142027 C1062.47954,656.87076 1064.53403,659.113279 1066.68252,660.869652 C1068.83102,662.626024 1070.4523,663.751449 1071.54641,664.24596 C1072.64052,664.740471 1074.21163,665.384772 1076.25981,666.178884 L1073.39308,673.705759 C1065.49245,671.895586 1058.8815,667.287288 1053.56002,659.880728 C1048.23855,652.474168 1046.55342,645.090186 1048.50459,637.728561 C1050.45575,630.366935 1055.10206,624.048819 1062.44365,618.774023 C1069.78524,613.499228 1077.25562,611.111727 1084.85502,611.61145 C1092.45442,612.111174 1098.69303,615.755654 1103.57105,622.545001 C1108.44907,629.334347 1110.10186,635.953514 1108.52946,642.4027 C1106.95706,648.851886 1102.92243,654.410376 1096.42544,659.078337 Z M1099.12537,639.185453 C1100.04055,635.523408 1099.17946,631.857042 1096.54206,628.186247 C1093.90466,624.515452 1090.56008,622.362533 1086.50822,621.727425 C1082.45635,621.092317 1078.20131,621.785322 1073.74297,623.80646 L1092.228,649.534383 C1095.91108,646.297107 1098.21018,642.847499 1099.12537,639.185453 Z M1090.13731,672.936542 L1095.79342,679.14689 L1090.2041,684.237388 C1091.36389,687.292974 1093.41165,690.432461 1096.34746,693.655944 C1099.28326,696.879426 1102.03628,698.86263 1104.60658,699.605615 C1107.17688,700.3486 1109.2309,700.019813 1110.76871,698.619246 C1112.30652,697.218679 1112.98429,695.438186 1112.80204,693.277715 C1112.6198,691.117245 1111.63215,686.498272 1109.83908,679.420658 C1108.04601,672.343044 1107.16001,667.06342 1107.18105,663.581627 C1107.2021,660.099835 1108.63211,657.066153 1111.47114,654.48049 C1115.13822,651.140675 1119.29828,649.975865 1123.95143,650.986023 C1128.60458,651.996182 1133.19354,654.985368 1137.71845,659.953672 C1142.24336,664.921975 1145.31332,670.728326 1146.92841,677.372898 L1136.37082,686.988284 L1130.71471,680.777936 L1136.6589,675.364231 C1135.35334,671.792163 1133.36736,668.542302 1130.7009,665.614552 C1128.03443,662.686802 1125.58852,661.100191 1123.36308,660.854673 C1121.13764,660.609155 1119.37434,661.078936 1118.07312,662.264032 C1116.7719,663.449127 1116.16779,664.864968 1116.26077,666.511595 C1116.41398,669.293645 1117.34089,673.69742 1119.04152,679.723052 C1120.9376,687.626619 1121.88724,693.362253 1121.89049,696.930126 C1121.89374,700.497999 1120.50544,703.547787 1117.72556,706.079582 C1114.05848,709.419396 1109.68851,710.53193 1104.61551,709.417216 C1099.54252,708.302503 1094.46083,704.950525 1089.37031,699.361184 C1084.27978,693.771842 1081.13458,688.061079 1079.93459,682.228721 L1090.13731,672.936542 Z M1127.695,708.968841 L1134.01289,714.504565 L1129.03074,720.190667 C1130.52641,723.096643 1132.91385,725.986247 1136.19316,728.859565 C1139.47246,731.732884 1142.43081,733.394305 1145.0683,733.843879 C1147.70579,734.293453 1149.70989,733.736029 1151.08065,732.171591 C1152.4514,730.607152 1152.92489,728.761797 1152.50112,726.63547 C1152.07736,724.509142 1150.57714,720.030337 1148.00042,713.198921 C1145.4237,706.367504 1143.95027,701.220812 1143.58009,697.758691 C1143.20991,694.296569 1144.29012,691.121458 1146.82075,688.233265 C1150.08948,684.502681 1154.09237,682.877964 1158.82954,683.359065 C1163.56671,683.840166 1168.46239,686.29498 1173.51673,690.723581 C1178.57106,695.152182 1182.27379,700.576955 1184.62501,706.998062 L1175.21428,717.738479 L1168.89639,712.202755 L1174.19487,706.15563 C1172.49634,702.752813 1170.15789,699.746595 1167.17944,697.136883 C1164.20099,694.527172 1161.59234,693.22534 1159.35341,693.231347 C1157.11448,693.237355 1155.4151,693.902226 1154.25523,695.225982 C1153.09536,696.549737 1152.65411,698.024474 1152.93146,699.650236 C1153.3962,702.397471 1154.81189,706.669262 1157.17859,712.465737 C1159.95043,720.10631 1161.53832,725.698977 1161.94231,729.243906 C1162.3463,732.788834 1161.30936,735.975263 1158.83145,738.803286 C1155.56272,742.533869 1151.34537,744.130219 1146.17927,743.592384 C1141.01317,743.054549 1135.58713,740.294585 1129.901,735.312408 C1124.21487,730.330232 1120.44811,725.008894 1118.6006,719.348235 L1127.695,708.968841 Z M1189.3766,712.580231 L1193.9017,706.227008 L1209.73589,717.504955 L1179.45251,760.022682 L1187.95606,766.079357 L1183.43096,772.432581 L1158.99548,755.028341 L1163.52058,748.675118 L1171.14445,754.10524 L1196.90272,717.940737 L1189.3766,712.580231 Z M1209.12858,701.603082 C1208.9589,699.910735 1209.39618,698.331517 1210.44044,696.865381 C1211.4847,695.399245 1212.90631,694.472007 1214.70531,694.083639 C1216.50431,693.695271 1218.12057,694.011609 1219.55412,695.032662 C1220.98768,696.053716 1221.78928,697.410396 1221.95896,699.102743 C1222.12864,700.79509 1221.69135,702.374308 1220.64709,703.840444 C1219.60283,705.30658 1218.18122,706.233818 1216.38222,706.622186 C1214.58322,707.010554 1212.96697,706.694216 1211.53341,705.673163 C1210.09986,704.652109 1209.29825,703.295429 1209.12858,701.603082 Z M1207.07523,750.659034 C1211.852,742.984079 1217.93327,737.982195 1225.31924,735.65323 C1232.70521,733.324266 1240.26952,734.569283 1248.01239,739.388321 C1255.75527,744.207358 1260.21261,750.444417 1261.38456,758.099686 C1262.5565,765.754955 1260.75412,773.419952 1255.97736,781.094907 C1251.20059,788.769862 1245.11932,793.771747 1237.73335,796.100711 C1230.34738,798.429676 1222.78307,797.184658 1215.0402,792.365621 C1207.29732,787.546583 1202.83998,781.309524 1201.66803,773.654255 C1200.49609,765.998986 1202.29847,758.333989 1207.07523,750.659034 Z M1215.73499,756.04872 C1212.31093,761.550236 1210.89221,766.933414 1211.47877,772.198414 C1212.06533,777.463414 1214.83765,781.638789 1219.7958,784.724664 C1224.75396,787.810539 1229.7244,788.454129 1234.70728,786.655454 C1239.69015,784.856779 1243.89355,781.206738 1247.31761,775.705221 C1250.74166,770.203705 1252.16038,764.820527 1251.57382,759.555527 C1250.98726,754.290527 1248.21494,750.115152 1243.25679,747.029277 C1238.29863,743.943403 1233.32819,743.299812 1228.34531,745.098488 C1223.36244,746.897163 1219.15904,750.547204 1215.73499,756.04872 Z M1269.28981,810.020517 L1278.57187,814.799307 L1275.00151,821.734185 L1248.4356,808.056958 L1252.00596,801.12208 L1260.22112,805.351584 L1280.54471,765.876128 L1272.32955,761.646624 L1275.89991,754.711746 L1291.15664,762.566539 L1289.52571,768.880275 C1292.6398,768.773911 1295.1359,768.731814 1297.01408,768.753982 C1298.89225,768.77615 1301.44663,769.101477 1304.67728,769.729974 C1307.90793,770.358471 1310.83906,771.350161 1313.47077,772.705074 C1319.58772,775.854331 1322.86817,779.837709 1323.31223,784.655328 C1323.75628,789.472946 1322.33047,795.0824 1319.03473,801.483858 L1304.86315,829.009987 L1313.61176,833.514134 L1311.30476,837.995132 C1307.83081,838.276147 1304.36904,837.528648 1300.91937,835.752614 C1297.4697,833.97658 1295.4602,832.19968 1294.89081,830.421862 C1294.32143,828.644043 1294.71419,826.439312 1296.0691,823.807602 L1309.96605,796.814925 C1312.08996,792.689541 1313.15858,789.303128 1313.17194,786.655583 C1313.1853,784.008039 1311.27157,781.695581 1307.4307,779.718141 C1303.58982,777.7407 1296.55222,776.816825 1286.31768,776.946486 L1269.28981,810.020517 Z"/>
    <path fill="#221F20" d="M495.08887,349 C492.592,360.535391 481.802261,364.248435 481,375.422261 C481,384.025565 487.307913,391 495.08887,391 C502.869826,391 509.177739,384.025565 509.177739,375.422261 C508.19713,364.158957 496.426174,359.15487 495.08887,349"/>
    <g transform="translate(1198 667)">
      <g transform="translate(20 .482)">
        <mask id="manic-b" fill="#fff">
          <use xlink:href="#manic-a"/>
        </mask>
        <path fill="#020302" d="M7.2848,10.6048 C7.2848,16.1758 5.6568,20.6908 3.6478,20.6908 C1.6398,20.6908 0.0118,16.1758 0.0118,10.6048 C0.0118,5.0338 1.6398,0.5178 3.6478,0.5178 C5.6568,0.5178 7.2848,5.0338 7.2848,10.6048" mask="url(#manic-b)"/>
      </g>
      <path fill="#020302" d="M35.0773,15.3231 C32.0003,19.9691 28.1483,22.8341 26.4743,21.7241 C24.8003,20.6161 25.9363,15.9531 29.0133,11.3071 C32.0903,6.6631 35.9413,3.7981 37.6153,4.9061 C39.2903,6.0161 38.1543,10.6801 35.0773,15.3231"/>
      <path fill="#020302" d="M38.7795,23.7841 C33.5735,25.7711 28.7745,25.8601 28.0575,23.9831 C27.3415,22.1081 30.9795,18.9771 36.1845,16.9891 C41.3895,15.0031 46.1895,14.9131 46.9055,16.7901 C47.6215,18.6651 43.9845,21.7961 38.7795,23.7841"/>
      <g transform="translate(27 24.482)">
        <mask id="manic-d" fill="#fff">
          <use xlink:href="#manic-c"/>
        </mask>
        <path fill="#020302" d="M10.0929,8.1566 C4.6449,6.9836 0.5749,4.4386 0.9979,2.4736 C1.4219,0.5106 6.1779,-0.1254 11.6249,1.0456 C17.0699,2.2196 21.1429,4.7656 20.7189,6.7296 C20.2959,8.6906 15.5399,9.3306 10.0929,8.1566" mask="url(#manic-d)"/>
      </g>
      <path fill="#020302" d="M30.1965,39.0526 C26.4555,34.9236 24.6335,30.4826 26.1225,29.1326 C27.6115,27.7856 31.8475,30.0396 35.5885,34.1706 C39.3255,38.3006 41.1505,42.7406 39.6595,44.0896 C38.1725,45.4376 33.9355,43.1846 30.1965,39.0526"/>
      <g transform="translate(20 29.482)">
        <mask id="manic-f" fill="#fff">
          <use xlink:href="#manic-e"/>
        </mask>
        <path fill="#020302" d="M0.7458,11.1566 C0.3978,5.5926 1.7438,0.9876 3.7498,0.8606 C5.7518,0.7376 7.6588,5.1416 8.0048,10.7026 C8.3498,16.2636 7.0048,20.8746 4.9998,20.9976 C2.9958,21.1216 1.0918,16.7156 0.7458,11.1566" mask="url(#manic-f)"/>
      </g>
      <path fill="#020302" d="M12.6501,35.4725 C15.6721,30.7895 19.4911,27.8815 21.1791,28.9715 C22.8631,30.0625 21.7831,34.7375 18.7601,39.4165 C15.7351,44.0965 11.9161,47.0085 10.2301,45.9165 C8.5431,44.8255 9.6261,40.1495 12.6501,35.4725"/>
      <path fill="#020302" d="M8.9225,27.246 C14.1065,25.201 18.9045,25.059 19.6415,26.929 C20.3765,28.798 16.7755,31.969 11.5925,34.011 C6.4085,36.054 1.6095,36.197 0.8735,34.328 C0.1375,32.461 3.7405,29.289 8.9225,27.246"/>
      <path fill="#020302" d="M10.5973,18.202 C16.0803,19.204 20.2293,21.618 19.8673,23.595 C19.5033,25.568 14.7703,26.358 9.2903,25.355 C3.8103,24.348 -0.3407,21.935 0.0223,19.959 C0.3843,17.982 5.1203,17.195 10.5973,18.202"/>
      <path fill="#020302" d="M17.5661,11.5682 C21.2171,15.7782 22.9411,20.2572 21.4221,21.5742 C19.9031,22.8862 15.7171,20.5422 12.0701,16.3312 C8.4251,12.1142 6.6971,7.6352 8.2171,6.3222 C9.7351,5.0062 13.9221,7.3552 17.5661,11.5682"/>
      <path fill="#020302" d="M17.2116,25.3359 C17.2116,21.8429 20.0426,19.0119 23.5356,19.0119 C27.0286,19.0119 29.8606,21.8429 29.8606,25.3359 C29.8606,28.8269 27.0286,31.6589 23.5356,31.6589 C20.0426,31.6589 17.2116,28.8269 17.2116,25.3359"/>
      <path stroke="#FEFEFE" stroke-width="2" d="M17.2116,25.3359 C17.2116,21.8429 20.0426,19.0119 23.5356,19.0119 C27.0286,19.0119 29.8606,21.8429 29.8606,25.3359 C29.8606,28.8269 27.0286,31.6589 23.5356,31.6589 C20.0426,31.6589 17.2116,28.8269 17.2116,25.3359 Z"/>
    </g>
  </g>
</svg>
